<?xml version="1.0" encoding="utf-8"?>
<!-- Generator: Adobe Illustrator 21.0.0, SVG Export Plug-In . SVG Version: 6.00 Build 0)  -->
<svg version="1.1" id="Layer_1" xmlns="http://www.w3.org/2000/svg" xmlns:xlink="http://www.w3.org/1999/xlink" x="0px" y="0px"
	 viewBox="0 0 2000 2000" style="enable-background:new 0 0 2000 2000;" xml:space="preserve">
<g>
	<path d="M715.8,473.5c-3.6,1.3-7.1,2.7-10.6,4.1c-0.1,0.1-0.3,0.1-0.5,0.2c0.1,0,0.2-0.1,0.2-0.1c3.5-1.4,7-2.8,10.6-4.1
		c7.7-2.8,15.4-5,23.2-7c1.7-0.4,3.3-1.2,4.8-2.1c-1.4,0.9-2.9,1.6-4.5,2C731.1,468.5,723.4,470.8,715.8,473.5z"/>
	<path d="M717.9,1007.7c-8.2-1.9-16.4-4.1-24.4-6.6C701.5,1003.6,709.7,1005.8,717.9,1007.7z"/>
	<path d="M696.5,481.7c1.6-0.8,3.3-1.5,4.9-2.3c0,0,0.1,0,0.1,0c-1.6,0.8-3.2,1.5-4.7,2.3C696.6,481.6,696.5,481.7,696.5,481.7z"/>
	<path d="M635,976.9c-3.7-2-7.5-4-11.1-6.1C627.5,972.9,631.3,975,635,976.9z"/>
	<path d="M696.4,481.7c-7.4,3.6-14.5,7.6-21.5,11.9C681.9,489.3,689,485.3,696.4,481.7z"/>
	<path d="M602.3,957.3c-5.3-3.6-10.5-7.3-15.5-11.2C591.8,950,597,953.8,602.3,957.3z"/>
	<path d="M677.6,995.8c-1.3-0.5-2.5-0.9-3.8-1.4C675.1,994.8,676.4,995.3,677.6,995.8z"/>
	<path d="M653.9,986.1c-6.4-2.9-12.7-5.9-18.9-9.2C641.2,980.2,647.5,983.2,653.9,986.1z"/>
	<path d="M693.5,1001.1c-2.7-0.8-5.4-1.7-8.1-2.6C688.1,999.4,690.8,1000.3,693.5,1001.1z"/>
	<path d="M653,508.7c-7.6,4.1-17.8-0.7-22-7.3c-2.3-3.6-2.9-9.2-1.8-13.3c1.3-4.8,4.2-7.5,7.9-10.4c20.4-15.7,43.4-28.1,67.6-36.9
		c-24.3,8.7-47.4,21.2-67.9,37c-3.7,2.9-6.7,5.6-7.9,10.4c-1.2,4.1-0.6,9.6,1.8,13.3C635,508.1,645.4,513,653,508.7z"/>
	<path d="M701.9,479.1c0,0-0.1,0-0.1,0.1C701.8,479.1,701.9,479.1,701.9,479.1z"/>
	<path d="M535.1,523.1c-65.8,107-56.2,241.9,17.9,341.6C478.9,765,469.4,630.1,535.1,523.1z"/>
	<path d="M914.2,369.1c-0.1,0-0.1-0.1-0.2-0.1c-38.6-15.4-79.3-22.9-119.9-23c40.6,0.2,81.3,7.7,119.9,23
		C914.1,369,914.2,369,914.2,369.1z"/>
	<path d="M833.1,464.4c89.7,18.4,158.6,88.6,175.5,178.5c1.8,9.2,12.8,14.5,21.4,12.1c3.8-1.1,6.7-3.2,8.8-6c-2.1,2.7-5,4.8-8.8,5.8
		c-8.5,2.3-19.6-2.9-21.4-12.1c-16.9-90-85.9-160.1-175.5-178.5c-8.8-1.8-12.6-8.3-12.5-15.2C820.5,456,824.2,462.6,833.1,464.4z"/>
	<path d="M922.8,951.5c113.3-55.8,180.7-177.9,167.4-303.5C1103.5,773.6,1036,895.8,922.8,951.5z"/>
	<path d="M538.4,460.5C538.4,460.5,538.4,460.6,538.4,460.5c-0.9,1-1.6,1.9-2.4,2.9C536.8,462.5,537.6,461.5,538.4,460.5
		C538.4,460.6,538.4,460.5,538.4,460.5z"/>
	<path d="M1218.3,665.1c5.5,166.4-88,324.8-238.6,399.5c-59.7,29.6-123.5,43.5-186.6,43.2c63.2,0.3,127-13.6,186.8-43.2
		C1130.3,989.9,1223.8,831.5,1218.3,665.1z"/>
	<path d="M744.8,463.6c-0.1,0.1-0.1,0.1-0.2,0.1C744.7,463.7,744.8,463.7,744.8,463.6z"/>
	<path d="M702.4,478.9c-0.1,0.1-0.3,0.1-0.4,0.2C702.1,479,702.2,478.9,702.4,478.9z"/>
	<path d="M524.3,884c-44.4-59-66.8-129.5-67.5-200C457.5,754.6,479.9,825.1,524.3,884z"/>
	<path d="M1115.9,598.2c6.8,26,10.4,52.9,10.6,80.3C1126.4,651.1,1122.7,624.2,1115.9,598.2z"/>
	<path d="M1192,1255.9c-0.1,11.1,4.4,22,10.8,32.4c0,0,0,0,0,0c0,0,0,0,0,0C1196.4,1277.9,1191.9,1267,1192,1255.9z"/>
	<path d="M884.3,263.9c35.6,8,69.5,20.5,101.2,36.9C953.8,284.4,919.9,271.9,884.3,263.9c-38.6-8.7-77.8-11.6-116.4-9.3
		C806.5,252.2,845.6,255.2,884.3,263.9z"/>
	<path d="M1572.1,1618.9c1.9,2.5,3.8,5,5.7,7.5C1575.9,1623.9,1574,1621.4,1572.1,1618.9z"/>
	<path d="M1543.8,1582.2c0.9,1.2,1.9,2.4,2.8,3.6C1545.7,1584.6,1544.7,1583.4,1543.8,1582.2z"/>
	<path d="M787.1,1016.1c-2.1,0-4.3-0.1-6.4-0.2C782.8,1016,785,1016.1,787.1,1016.1z"/>
	<path d="M1303.9,1271.5C1303.9,1271.5,1303.9,1271.5,1303.9,1271.5c-5.1,0.3-10.5,1.2-16.1,2.7c-29.1,7.7-47.6,28.8-54.6,53.6
		c0,0,0,0,0,0c0,0,0,0,0,0c7-24.7,25.6-45.9,54.6-53.6C1293.4,1272.7,1298.8,1271.9,1303.9,1271.5z"/>
	<path d="M1607.9,1735.6c0,0.1-0.1,0.1-0.1,0.1c-3.4,2.3-6.5,3.8-9.8,5.4c-10.9,4.9-20.7,5.4-29.5,2.9c-1.5-0.5-3-0.9-4.6-1.6
		c-1.1-0.5-2.2-0.8-3.3-1.4c-12.8-6.9-23.8-20-34-33.1c-2.7-3.5-5.4-6.9-8.1-10.4l-0.1-0.1c-3.7-4.9-7.6-9.8-11.4-14.8
		c-36.2-46.8-72.2-93.6-108.4-140.6c-41.1-53.2-82.1-106.4-123.2-159.6c-2.9-4.3-5.5-8.7-7.5-13.2c2.1,4.7,4.7,9.3,7.8,13.8
		c41.1,53.2,82.1,106.4,123.2,159.6c36.1,46.7,72.2,93.5,108.3,140.2c3.9,4.9,7.6,9.9,11.4,14.8l0.1,0.1c2.7,3.5,5.4,6.9,8.1,10.4
		c10.2,13.2,21.1,26.3,34,33.1c1.1,0.6,2.2,0.9,3.3,1.4c1.5,0.6,3,1.2,4.6,1.6c8.9,2.6,18.7,2,29.5-2.9c3.2-1.5,6.4-3,9.8-5.4
		c0-0.1,0.1-0.1,0.1-0.1c20.6-15.9,18-37.2,7.4-58.3C1625.9,1698.6,1628.3,1719.9,1607.9,1735.6z"/>
	<path d="M985.5,300.8c36.6,18.9,70.2,43,99.8,71.2C1055.7,343.8,1022.1,319.8,985.5,300.8z"/>
	<path d="M1198.2,550.3c-22.2-68.2-61.5-129.4-112.8-178.3C1136.6,420.9,1176,482.2,1198.2,550.3z"/>
	<path d="M1271.9,1230c-6-6.6-13.5-11.1-21.4-13.6C1258.5,1218.9,1265.9,1223.4,1271.9,1230z"/>
	<path d="M1217.4,648.4c0.4,5.6,0.7,11.1,0.9,16.7C1218.1,659.5,1217.8,654,1217.4,648.4z"/>
	<path d="M1198.2,550.3c1.7,5.2,3.3,10.5,4.8,15.8C1201.5,560.9,1199.9,555.6,1198.2,550.3z"/>
	<path d="M762.2,1014.7c-0.4,0-0.7-0.1-1.1-0.1C761.5,1014.7,761.8,1014.7,762.2,1014.7z"/>
	<path d="M1272,1230.1c10.6,13.8,21.3,27.7,31.9,41.4C1293.3,1257.6,1282.6,1243.9,1272,1230.1z"/>
	<path d="M749.8,1013.4c-2.7-0.3-5.3-0.7-8-1.1C744.4,1012.6,747.1,1013,749.8,1013.4z"/>
	<path d="M1096.4,1142.6c-7.1-33.7,17.3-52.1,43.3-51.8c-26-0.4-50.5,18-43.4,51.8c5.7,27.4,37.9,56.8,54.1,77.8
		c3.9,5,7.6,9.9,11.4,14.8c0,0,0-0.1,0-0.1c-3.8-4.9-7.5-9.7-11.2-14.6C1134.3,1199.4,1102.1,1170,1096.4,1142.6z"/>
	<path d="M730.3,1010.2c-4.1-0.8-8.3-1.7-12.4-2.6C722,1008.6,726.2,1009.5,730.3,1010.2z"/>
	<path d="M685.4,998.5c-2.6-0.9-5.2-1.8-7.8-2.7C680.2,996.7,682.8,997.6,685.4,998.5z"/>
	<path d="M1115.9,598.2c-26.6-102.2-101.3-189.1-201.7-229.1C1014.6,409.1,1089.3,496.1,1115.9,598.2z"/>
	<path d="M741.8,1012.2c-3.8-0.6-7.7-1.2-11.5-2C734.1,1011,738,1011.6,741.8,1012.2z"/>
	<path d="M794.2,346c-96.1-0.4-191.4,40.3-255.8,114.6C602.9,386.2,698.1,345.6,794.2,346z"/>
	<path d="M663.7,990.4c-3.3-1.4-6.6-2.8-9.8-4.3C657.1,987.6,660.4,989,663.7,990.4z"/>
	<path d="M452.8,942C348,801.4,334.2,610.3,426,458.9c73.3-121,204-196.2,341.8-204.4c-137.9,8.2-268.6,83.4-342,204.4
		c-91.8,151.3-78.1,342.4,26.8,483c84,105.4,210.9,165.3,340.3,165.8C663.7,1107.2,536.8,1047.3,452.8,942z"/>
	<path d="M527.2,887.6c-0.5-0.6-0.6-1.4-1.1-2c-0.6-0.6-1.2-0.8-1.8-1.5c0,0,0-0.1-0.1-0.1c0,0,0,0.1,0.1,0.1
		c0.5,0.7,1.2,0.9,1.8,1.5C526.5,886.3,526.6,887,527.2,887.6c10.8,13.7,22.5,26.3,35.1,38C549.7,913.9,537.9,901.2,527.2,887.6z"/>
	<path d="M774.3,1015.7c-4.1-0.2-8.1-0.5-12.2-0.9C766.2,1015.1,770.3,1015.4,774.3,1015.7z"/>
	<path d="M761.1,1014.6c-3.8-0.4-7.6-0.8-11.3-1.3C753.5,1013.9,757.3,1014.3,761.1,1014.6z"/>
	<path d="M673.9,994.4c-3.4-1.3-6.8-2.6-10.2-4C667.1,991.8,670.5,993.1,673.9,994.4z"/>
	<path d="M618.4,967.6c-5.5-3.3-10.8-6.7-16.1-10.3C607.6,960.9,612.9,964.3,618.4,967.6z"/>
	<path d="M456.8,684c-0.7-78.8,25.8-157.7,79.1-220.6C482.6,526.3,456.1,605.2,456.8,684z"/>
	<path d="M1233.2,1327.7c-10.1-13.2-20.3-26.3-30.4-39.4C1212.9,1301.5,1223.1,1314.7,1233.2,1327.7z"/>
	<path d="M1303.9,1271.5C1303.9,1271.5,1303.9,1271.5,1303.9,1271.5C1303.9,1271.5,1303.9,1271.5,1303.9,1271.5L1303.9,1271.5z"/>
	<path d="M1126.4,691.7c0.1-4.4,0.2-8.8,0.2-13.2c0,4.3,0,8.7-0.2,13.1c-4.8,140.1-98.4,264.8-231.6,308.5
		c-8.3,2.7-16.7,5.1-25.1,7.1c8.4-2,16.8-4.4,25.1-7.1C1028,956.4,1121.6,831.7,1126.4,691.7z"/>
	<path d="M1232.7,1179c-10.3-13.3-20.5-26.6-30.8-39.9c-8.1-10.4-15.5-21.8-24.3-31.5c-10.2-11.1-24.3-16.6-37.9-16.8
		c13.6,0.2,27.7,5.6,37.8,16.8c8.9,9.7,16.3,21.1,24.3,31.5c10.3,13.3,20.5,26.6,30.8,39.9c-4.2,0.2-8.5,0.5-13.1,1.5
		c-31.9,7.1-51,28.9-57.6,54.6c0.1,0.1,0.1,0.2,0.2,0.3c6.4-25.9,25.6-47.7,57.5-54.8C1224.1,1179.5,1228.5,1179.3,1232.7,1179z"/>
	<path d="M1252.8,696.4c6.8-191.9-111.2-371.8-288.9-443.8c-180-72.9-392.8-22.2-520.7,124.1c-143.5,164.5-150,411.1-19.1,584.7
		c0.5,0.7,1.2,0.9,1.6,1.5c0.3,0.7,0.5,1.4,1.1,2c118.5,150.2,321.5,215,504.7,156.3C1116,1062.1,1246.1,889.7,1252.8,696.4z
		 M979.8,1064.6c-59.7,29.6-123.5,43.5-186.8,43.2c-129.4-0.6-256.4-60.5-340.3-165.8c-104.9-140.6-118.7-331.7-26.8-483
		c73.4-121,204.1-196.2,342-204.4c38.6-2.3,77.8,0.7,116.4,9.3c35.6,8,69.5,20.5,101.2,36.9c36.6,18.9,70.2,43,99.8,71.2
		c51.3,48.9,90.6,110.1,112.8,178.3c1.7,5.2,3.3,10.5,4.8,15.8c6,21.3,10.4,43.2,12.9,65.5c0.6,5.6,1.1,11.1,1.6,16.7
		c0.4,5.6,0.7,11.1,0.9,16.7C1223.8,831.5,1130.3,989.9,979.8,1064.6z"/>
	<path d="M1272,1230.1C1272,1230,1272,1230,1272,1230.1c-0.1-0.1-0.1-0.1-0.1-0.1C1272,1230,1272,1230,1272,1230.1
		C1272,1230,1272,1230,1272,1230.1z"/>
	<path d="M1250.6,1216.4c-23.7-7.4-51.5,3.6-57.7,31.8c-0.6,2.6-0.9,5.2-0.9,7.7c0-2.6,0.3-5.1,0.9-7.7
		C1199.1,1220.1,1226.9,1209,1250.6,1216.4z"/>
	<path d="M1265.9,1336.1c11.4-33.3,54.4-38.6,77.1-14c1.9,2,3.4,4.3,5,6.5c43.4,56.2,86.8,112.5,130.2,168.7
		c14.6,18.9,29.2,37.8,43.8,56.7c7.3,9.4,14.5,18.8,21.8,28.2c-7.3-9.5-14.6-19-21.9-28.5c-14.6-18.9-29.2-37.8-43.8-56.7
		c-43.4-56.2-86.8-112.5-130.2-168.7c-1.6-2.2-3.1-4.6-5-6.5c-22.8-24.6-65.7-19.3-77.1,14c-4.1,12.1-2.4,23.1,2.2,33.3
		C1263.4,1358.9,1261.8,1348,1265.9,1336.1z"/>
	<path d="M1642.6,1654.3c-6.1-9-13.4-17.4-20.1-26c-19.3-25-38.5-49.8-57.8-74.8c-32.6-42.1-65-84.2-97.5-126.4
		c-12.4-16-24.7-32-37-48c-65.2-84.5-130.4-168.9-195.5-253.4c-27.1-35-52.6-77.6-104.3-71.2c-48.2,6-80.3,54.7-66.5,101.4
		c4.7,15.8,14.2,27.2,23.9,39.8c30.2,39.2,60.4,78.4,90.8,117.6c37.9,49.7,76.1,99.2,114.5,148.6c38.5,50.1,77.4,99.9,116,149.8
		c30.1,39.1,60.3,78.1,90.4,117.1c2.3,3,4.7,6.1,7,9.1c2.6,3.3,5,6.7,7.6,9.9c0.5,0.7,0.9,1.3,1.5,2c2.9,3.5,6.1,6.5,9.3,9.5
		c0.1,0.1,0.2,0.2,0.4,0.4c11.8,10.3,25.7,16.9,40.3,19.4c0.2,0,0.5,0.1,0.7,0.2c4.6,0.7,9.2,1.1,13.8,0.9c0.4,0,0.8,0.1,1.2,0.1
		c15.2-0.5,30.5-5.1,44.2-14.7c0.1-0.1,0.1-0.1,0.2-0.2c4.6-3.5,8.5-7.4,12-11.4c0.5-0.5,0.9-0.9,1.4-1.4c2.4-2.8,4.2-5.8,6.1-8.9
		c0.6-0.9,1.2-1.8,1.8-2.7c0.1-0.2,0.2-0.5,0.3-0.6c0.5-0.8,1.1-1.5,1.4-2.2c1.4-2.7,2.3-5.4,3.3-8.2c0.6-1.5,1.2-3,1.6-4.6
		c0.4-1.1,0.8-2.1,1.1-3.2c0.4-1.4,0.6-2.9,0.8-4.3C1659.9,1696.9,1656,1674,1642.6,1654.3z M1162.1,1235.4
		c-0.1-0.1-0.1-0.2-0.2-0.3c0,0,0,0.1,0,0.1c-3.9-4.9-7.6-9.8-11.4-14.8c-16.2-21-48.4-50.4-54.1-77.8
		c-7.1-33.8,17.4-52.2,43.4-51.8c13.7,0.2,27.8,5.6,37.9,16.8c8.8,9.7,16.2,21.1,24.3,31.5c10.3,13.3,20.5,26.6,30.8,39.9
		c-4.2,0.2-8.5,0.5-13.1,1.5C1187.6,1187.7,1168.5,1209.5,1162.1,1235.4z M1233.2,1327.8C1233.2,1327.8,1233.2,1327.8,1233.2,1327.8
		c-10.2-13.1-20.3-26.2-30.4-39.4c0,0,0,0,0,0c-6.4-10.4-10.9-21.3-10.8-32.4c0-2.6,0.3-5.1,0.9-7.7c6.2-28.2,34-39.2,57.7-31.8
		c7.9,2.5,15.3,7,21.4,13.6c0,0,0,0,0,0c0,0,0,0,0.1,0.1c10.6,13.8,21.3,27.6,31.9,41.4c0,0,0,0,0.1,0.1h0c0,0,0,0,0,0
		c-5.1,0.4-10.5,1.2-16.1,2.7C1258.8,1281.9,1240.2,1303,1233.2,1327.8z M1608,1735.9c0,0-0.1,0-0.1,0.1c-3.4,2.3-6.7,3.9-9.8,5.4
		c-10.9,4.9-20.7,5.5-29.5,2.9c-1.5-0.5-3-1.1-4.6-1.6c-1-0.5-2.2-0.8-3.3-1.4c-12.8-6.9-23.8-20-34-33.1c-2.7-3.5-5.4-6.9-8.1-10.4
		l-0.1-0.1c-3.9-4.9-7.6-9.9-11.4-14.8c-36.1-46.8-72.2-93.6-108.3-140.2c-41.1-53.2-82.1-106.4-123.2-159.6
		c-3-4.5-5.7-9.1-7.8-13.8c-4.6-10.2-6.3-21.2-2.2-33.3c11.4-33.3,54.4-38.6,77.1-14c1.9,2,3.4,4.3,5,6.5
		c43.4,56.2,86.8,112.5,130.2,168.7c14.6,18.9,29.2,37.8,43.8,56.7c7.3,9.5,14.6,19,21.9,28.5c0.9,1.2,1.9,2.4,2.8,3.6
		c7.3,9.4,14.5,18.8,21.8,28.2c1.2,1.6,2.5,3.2,3.7,4.9c1.9,2.5,3.8,5,5.7,7.5c1.2,1.6,2.4,3.2,3.7,4.7c2.8,3.7,5.7,7.4,8.5,11.1
		c7.4,9.6,17,21.1,24.3,33.3c0.4,0.7,0.7,1.4,1.1,2.2C1626,1698.7,1628.6,1720,1608,1735.9z"/>
	<path d="M787.1,1016.1c27.5,0.5,55.3-2.4,82.6-9C842.4,1013.7,814.6,1016.6,787.1,1016.1z"/>
	<path d="M1590.1,1642.4c7.4,9.6,17,21.1,24.3,33.3c0.3,0.6,0.7,1.3,1,1.9c-0.4-0.7-0.7-1.4-1.1-2.2c-7.2-12.1-16.9-23.7-24.3-33.3
		c-2.8-3.7-5.7-7.4-8.5-11.1c-1.2-1.6-2.4-3.1-3.7-4.7c1.3,1.6,2.5,3.3,3.8,4.9C1584.4,1635.1,1587.3,1638.7,1590.1,1642.4z"/>
	<path d="M1572.1,1618.9c-1.2-1.6-2.5-3.2-3.7-4.9c-7.3-9.4-14.5-18.8-21.8-28.2c7.3,9.5,14.6,19,21.9,28.5
		C1569.7,1615.8,1570.9,1617.4,1572.1,1618.9z"/>
	<path d="M704.7,477.8c-0.6,0.3-1.6,0.7-2.4,1C703.1,478.6,704.1,478.1,704.7,477.8z"/>
	<path d="M744.6,463.8c-0.3,0.3-0.7,0.5-1.1,0.8C743.9,464.3,744.3,464,744.6,463.8z"/>
	<path d="M702,479C702,479.1,701.9,479.1,702,479C701.9,479.1,702,479,702,479z"/>
	<path d="M856.9,387.4c-123.6-27.9-255.4,27.7-321.8,135.7C601.5,415.2,733.2,359.5,856.9,387.4z"/>
	<path d="M1126.4,691.6c0.1-4.4,0.2-8.7,0.2-13.1c-0.2-27.4-3.9-54.4-10.6-80.3c-26.6-102.1-101.4-189.1-201.7-229.1
		c-0.1,0-0.1-0.1-0.2-0.1c-38.6-15.4-79.3-22.9-119.9-23c-96-0.4-191.3,40.3-255.8,114.6c0,0,0,0-0.1,0.1c-0.8,0.9-1.6,1.9-2.4,2.8
		c-53.4,62.9-79.9,141.8-79.1,220.6c0.6,70.5,23.1,141,67.5,200c0,0,0,0.1,0.1,0.1c0.6,0.7,1.2,0.9,1.8,1.5c0.5,0.6,0.6,1.4,1.1,2
		c10.8,13.7,22.5,26.3,35.1,38c7.9,7.3,16,14.2,24.5,20.6c5.1,3.9,10.3,7.6,15.5,11.2c5.3,3.6,10.6,7,16.1,10.3
		c1.8,1.1,3.6,2.2,5.5,3.2c3.7,2.1,7.4,4.1,11.1,6.1c6.2,3.3,12.5,6.3,18.9,9.2c3.3,1.5,6.5,2.9,9.8,4.3c3.4,1.4,6.8,2.7,10.2,4
		c1.3,0.5,2.5,0.9,3.8,1.4c2.6,0.9,5.2,1.8,7.8,2.7c2.7,0.9,5.4,1.8,8.1,2.6c8.1,2.5,16.2,4.7,24.4,6.6c4.1,0.9,8.2,1.8,12.4,2.6
		c3.8,0.7,7.6,1.4,11.5,2c2.7,0.4,5.3,0.8,8,1.1c3.8,0.5,7.5,0.9,11.3,1.3c0.4,0,0.7,0.1,1.1,0.1c4,0.4,8.1,0.7,12.2,0.9
		c2.1,0.1,4.2,0.2,6.3,0.3c2.1,0.1,4.3,0.1,6.4,0.2c27.5,0.5,55.3-2.4,82.6-9c8.4-2,16.8-4.4,25.1-7.1
		C1028,956.4,1121.6,831.7,1126.4,691.6z M553,864.7c-74.1-99.8-83.7-234.6-17.9-341.6c66.4-108,198.2-163.6,321.8-135.7
		c123.7,28,220,134.1,233.3,260.6c13.3,125.5-54.1,247.7-167.4,303.5C794.8,1014.8,640.8,974.4,553,864.7z"/>
	<path d="M833.1,464.3c89.6,18.4,158.6,88.6,175.5,178.5c1.8,9.2,12.8,14.5,21.4,12.1c3.8-1,6.7-3.1,8.8-5.8
		c3.1-4.2,4.3-9.8,3.2-15.3c-18.9-100.9-99.2-182.1-199.6-202.8c-12.9-2.7-21.5,8-21.7,18.1C820.5,456,824.2,462.5,833.1,464.3z"/>
	<path d="M842.3,431.1c100.5,20.7,180.7,101.9,199.6,202.8c1.1,5.5-0.1,11.1-3.2,15.3c3.2-4.2,4.4-9.9,3.3-15.5
		c-19-100.7-99.3-182-199.7-202.7c-13-2.6-21.5,8.1-21.7,18.2C820.8,439.1,829.3,428.4,842.3,431.1z"/>
	<path d="M701.6,479.2c0,0,0.1-0.1,0.2-0.1c-0.2,0.1-0.3,0.1-0.4,0.2C701.5,479.3,701.5,479.3,701.6,479.2z"/>
	<path d="M553,864.7c87.9,109.7,241.9,150,369.8,86.8C794.8,1014.6,640.8,974.4,553,864.7z"/>
	<path d="M629.3,488.1c-1.2,4.1-0.6,9.7,1.8,13.3c4.2,6.6,14.4,11.4,22,7.3c0.5-0.3,1-0.6,1.5-1c6.6-5,13.4-9.8,20.5-14.1
		c6.9-4.3,14.1-8.3,21.5-11.9c0,0,0,0,0.1,0c0,0,0,0,0,0c0.1,0,0.2-0.1,0.2-0.1c1.6-0.8,3.2-1.5,4.7-2.3c0.1,0,0.2-0.1,0.4-0.2
		c0,0,0.1,0,0.1-0.1c0,0,0,0,0.1,0c0.1-0.1,0.2-0.1,0.4-0.2c0.8-0.4,1.8-0.8,2.4-1c0.2-0.1,0.4-0.2,0.5-0.2c3.5-1.4,7-2.8,10.6-4.1
		c7.6-2.7,15.3-5,23.2-7c1.6-0.4,3.1-1.1,4.5-2c0.4-0.2,0.7-0.5,1.1-0.8c0.1,0,0.1-0.1,0.2-0.1c5.3-4.2,8.2-11.6,6-18.1
		c-3-9.1-11.9-14.5-21.4-12.1c-8.3,2.1-16.6,4.6-24.6,7.5c-24.3,8.8-47.2,21.1-67.6,36.9C633.5,480.6,630.5,483.3,629.3,488.1z"/>
	<path d="M653,508.7c0.6-0.3,1.2-0.7,1.7-1.1c6.5-5,13.3-9.7,20.2-14c-7.1,4.4-13.9,9.1-20.5,14.1C654,508.1,653.5,508.4,653,508.7z
		"/>
	<path d="M696.4,481.7C696.4,481.7,696.4,481.7,696.4,481.7C696.5,481.7,696.5,481.7,696.4,481.7
		C696.4,481.7,696.4,481.7,696.4,481.7z"/>
	<path d="M750.8,445.5c2.2,6.5-0.7,13.9-6,18.1c5.4-4.2,8.4-11.8,6.3-18.4c-3.2-9-12.1-14.2-21.5-11.9c-8.4,2.1-16.7,4.6-24.9,7.6
		c8.1-2.9,16.3-5.4,24.6-7.5C738.9,431.1,747.8,436.4,750.8,445.5z"/>
</g>
</svg>
