<svg width="24" height="14" viewBox="0 0 24 14" fill="none" xmlns="http://www.w3.org/2000/svg">
<path d="M16.331 13.171V12.06L16.309 12.07C16.059 12.191 15.787 12.26 15.508 12.273C15.2196 12.2937 14.9334 12.2095 14.702 12.036C14.5376 11.9089 14.415 11.7354 14.35 11.538C14.2795 11.3223 14.2715 11.091 14.327 10.871C14.379 10.646 14.505 10.445 14.684 10.302C14.844 10.168 15.039 10.084 15.246 10.06C15.6115 10.0191 15.9809 10.088 16.307 10.258L16.331 10.271V9.15399L16.28 9.13999C15.9535 9.03663 15.6112 8.99194 15.269 9.00799C14.9572 9.01472 14.65 9.0848 14.366 9.21399C14.079 9.34599 13.826 9.54099 13.627 9.78499C13.3233 10.1685 13.1547 10.6415 13.1474 11.1307C13.1402 11.6199 13.2947 12.0977 13.587 12.49C13.882 12.868 14.296 13.135 14.762 13.246C15.253 13.366 15.768 13.348 16.249 13.194L16.331 13.171ZM5.33605 13.171V12.06L5.31405 12.07C5.06405 12.191 4.79205 12.26 4.51305 12.273C4.2244 12.2955 3.93754 12.2112 3.70705 12.036C3.5425 11.9092 3.42015 11.7356 3.35605 11.538C3.28513 11.3224 3.27681 11.0911 3.33205 10.871C3.38405 10.646 3.50905 10.445 3.68905 10.302C3.84905 10.168 4.04405 10.084 4.25105 10.06C4.61653 10.0191 4.98592 10.088 5.31205 10.258L5.33605 10.271V9.15399L5.28505 9.13999C4.95849 9.03663 4.6162 8.99194 4.27405 9.00799C3.96219 9.01472 3.65496 9.0848 3.37105 9.21399C3.08462 9.34632 2.83169 9.54148 2.63105 9.78499C2.32776 10.1686 2.15937 10.6415 2.15196 11.1305C2.14455 11.6195 2.29852 12.0973 2.59005 12.49C2.8842 12.8689 3.29921 13.1357 3.76605 13.246C4.25705 13.366 4.77105 13.348 5.25305 13.194L5.33605 13.171ZM9.26005 12.249L9.25605 13.206L9.32605 13.218C9.54605 13.2587 9.76738 13.287 9.99005 13.303C10.1854 13.3217 10.381 13.3257 10.577 13.315C10.765 13.301 10.9487 13.2663 11.128 13.211C11.338 13.151 11.533 13.048 11.699 12.906C11.8489 12.7776 11.9635 12.6131 12.032 12.428C12.1523 12.1188 12.1498 11.7754 12.025 11.468C11.9595 11.3085 11.8574 11.1667 11.727 11.054C11.5992 10.9411 11.4504 10.8544 11.289 10.799L10.567 10.531C10.4814 10.4933 10.4117 10.4268 10.37 10.343C10.3547 10.3083 10.3474 10.2705 10.3488 10.2326C10.3502 10.1946 10.3602 10.1575 10.378 10.124C10.4159 10.0638 10.469 10.0148 10.532 9.98199C10.613 9.94308 10.6998 9.91806 10.789 9.90799C10.9424 9.88533 11.0957 9.88699 11.249 9.91299C11.429 9.93299 11.6067 9.96499 11.782 10.009L11.82 10.017V9.13399L11.751 9.11899C11.572 9.07669 11.3907 9.04431 11.208 9.02199C10.9712 8.99053 10.7312 8.98952 10.494 9.01899C10.194 9.04599 9.90905 9.16199 9.67305 9.34899C9.51305 9.47499 9.39205 9.64199 9.32205 9.83299C9.21805 10.123 9.21705 10.441 9.32205 10.732C9.37671 10.878 9.46071 11.005 9.57405 11.113C9.67138 11.2063 9.78038 11.285 9.90105 11.349C10.0584 11.433 10.224 11.498 10.398 11.544C10.4554 11.5613 10.512 11.5793 10.568 11.598L10.653 11.629L10.677 11.639C10.761 11.669 10.839 11.717 10.903 11.779C10.9484 11.8217 10.982 11.872 11.004 11.93C11.019 11.9826 11.0194 12.0382 11.005 12.091C10.9779 12.1763 10.9183 12.2474 10.839 12.289C10.7526 12.3322 10.6597 12.3613 10.564 12.375C10.4229 12.3972 10.2797 12.4043 10.137 12.396C9.95014 12.3818 9.76418 12.3571 9.58005 12.322C9.48402 12.3012 9.38834 12.2789 9.29305 12.255L9.26005 12.249ZM6.78505 13.244H7.83505V9.07699H6.78505V13.244ZM18.947 10.308C19.0586 10.2171 19.1869 10.1492 19.3248 10.1079C19.4626 10.0667 19.6072 10.053 19.7503 10.0677C19.8934 10.0824 20.0322 10.1251 20.1588 10.1934C20.2854 10.2618 20.3973 10.3544 20.488 10.466C20.5791 10.5774 20.6472 10.7057 20.6886 10.8435C20.73 10.9813 20.7438 11.1259 20.7292 11.2691C20.7146 11.4122 20.672 11.5511 20.6036 11.6777C20.5353 11.8043 20.4427 11.9162 20.331 12.007L20.314 12.021C20.0863 12.1956 19.7991 12.274 19.5143 12.2392C19.2294 12.2043 18.9695 12.0592 18.7905 11.8349C18.6115 11.6105 18.5276 11.325 18.5569 11.0394C18.5861 10.7539 18.7262 10.4913 18.947 10.308ZM17.422 11.162C17.4271 11.4872 17.5045 11.8073 17.6486 12.0989C17.7927 12.3906 17.9998 12.6465 18.255 12.8482C18.5102 13.0499 18.8071 13.1923 19.1241 13.2651C19.4412 13.3379 19.7704 13.3392 20.088 13.269C20.5143 13.1883 20.9059 12.98 21.211 12.6716C21.5161 12.3632 21.7202 11.9693 21.7963 11.5422C21.8723 11.1152 21.8167 10.675 21.6368 10.2803C21.4569 9.88553 21.1613 9.55481 20.789 9.33199C20.4581 9.12743 20.079 9.01397 19.6902 9.0031C19.3013 8.99224 18.9164 9.08437 18.5746 9.27015C18.2328 9.45592 17.9462 9.72875 17.7438 10.061C17.5414 10.3932 17.4304 10.773 17.422 11.162ZM22.961 5.72799C22.9669 5.86183 23.0242 5.98824 23.121 6.08086C23.2178 6.17349 23.3466 6.22519 23.4805 6.22519C23.6145 6.22519 23.7433 6.17349 23.8401 6.08086C23.9369 5.98824 23.9942 5.86183 24 5.72799V4.57299C23.9942 4.43916 23.9369 4.31275 23.8401 4.22012C23.7433 4.12749 23.6145 4.07579 23.4805 4.07579C23.3466 4.07579 23.2178 4.12749 23.121 4.22012C23.0242 4.31275 22.9669 4.43916 22.961 4.57299V5.72799ZM20.117 5.72799C20.127 5.85921 20.1862 5.98182 20.2827 6.07128C20.3792 6.16074 20.506 6.21045 20.6375 6.21045C20.7691 6.21045 20.8959 6.16074 20.9924 6.07128C21.0889 5.98182 21.1481 5.85921 21.158 5.72799V3.13899C21.1498 3.00665 21.0915 2.88243 20.9949 2.79162C20.8982 2.70081 20.7706 2.65026 20.638 2.65026C20.5055 2.65026 20.3779 2.70081 20.2812 2.79162C20.1846 2.88243 20.1263 3.00665 20.118 3.13899L20.117 5.72799ZM17.231 6.77099C17.241 6.90195 17.3001 7.02432 17.3964 7.1136C17.4927 7.20288 17.6192 7.25249 17.7505 7.25249C17.8819 7.25249 18.0084 7.20288 18.1047 7.1136C18.201 7.02432 18.2601 6.90195 18.27 6.77099V1.16999C18.2642 1.03616 18.2069 0.909749 18.1101 0.817121C18.0133 0.724493 17.8845 0.672791 17.7505 0.672791C17.6166 0.672791 17.4878 0.724493 17.391 0.817121C17.2942 0.909749 17.2369 1.03616 17.231 1.16999V6.77099ZM14.393 5.72799C14.4013 5.86033 14.4596 5.98456 14.5562 6.07537C14.6528 6.16617 14.7805 6.21673 14.913 6.21673C15.0456 6.21673 15.1732 6.16617 15.2699 6.07537C15.3665 5.98456 15.4248 5.86033 15.433 5.72799V3.13899C15.4272 3.00516 15.3699 2.87875 15.2731 2.78612C15.1763 2.69349 15.0475 2.64179 14.9135 2.64179C14.7796 2.64179 14.6508 2.69349 14.554 2.78612C14.4572 2.87875 14.3999 3.00516 14.394 3.13899L14.393 5.72799ZM11.493 5.72799C11.5057 5.85698 11.5659 5.97664 11.6619 6.06369C11.758 6.15075 11.8829 6.19897 12.0125 6.19897C12.1422 6.19897 12.2671 6.15075 12.3632 6.06369C12.4592 5.97664 12.5194 5.85698 12.532 5.72799V4.57299C12.5262 4.43916 12.4689 4.31275 12.3721 4.22012C12.2753 4.12749 12.1465 4.07579 12.0125 4.07579C11.8786 4.07579 11.7498 4.12749 11.653 4.22012C11.5562 4.31275 11.4989 4.43916 11.493 4.57299V5.72799ZM8.62305 5.72799C8.62892 5.86183 8.68622 5.98824 8.783 6.08086C8.87978 6.17349 9.00858 6.22519 9.14255 6.22519C9.27651 6.22519 9.40531 6.17349 9.50209 6.08086C9.59887 5.98824 9.65617 5.86183 9.66205 5.72799V3.13899C9.65617 3.00516 9.59887 2.87875 9.50209 2.78612C9.40531 2.69349 9.27651 2.64179 9.14255 2.64179C9.00858 2.64179 8.87978 2.69349 8.783 2.78612C8.68622 2.87875 8.62892 3.00516 8.62305 3.13899V5.72799ZM5.73605 6.77099C5.74192 6.90483 5.79922 7.03124 5.896 7.12386C5.99278 7.21649 6.12158 7.26819 6.25555 7.26819C6.38951 7.26819 6.51831 7.21649 6.61509 7.12386C6.71187 7.03124 6.76917 6.90483 6.77505 6.77099V1.16999C6.76917 1.03616 6.71187 0.909749 6.61509 0.817121C6.51831 0.724493 6.38951 0.672791 6.25555 0.672791C6.12158 0.672791 5.99278 0.724493 5.896 0.817121C5.79922 0.909749 5.74192 1.03616 5.73605 1.16999V6.77099ZM2.87505 5.72799C2.88646 5.85803 2.94619 5.97908 3.04245 6.06725C3.1387 6.15543 3.26451 6.20434 3.39505 6.20434C3.52559 6.20434 3.65139 6.15543 3.74765 6.06725C3.84391 5.97908 3.90363 5.85803 3.91505 5.72799V3.13899C3.90917 3.00516 3.85187 2.87875 3.75509 2.78612C3.65831 2.69349 3.52951 2.64179 3.39555 2.64179C3.26158 2.64179 3.13278 2.69349 3.036 2.78612C2.93922 2.87875 2.88192 3.00516 2.87605 3.13899L2.87505 5.72799ZM-0.00195312 5.72799C0.00800603 5.85895 0.0670597 5.98132 0.163387 6.0706C0.259715 6.15988 0.386208 6.20949 0.517547 6.20949C0.648886 6.20949 0.775379 6.15988 0.871707 6.0706C0.968034 5.98132 1.02709 5.85895 1.03705 5.72799V4.57299C1.03117 4.43916 0.973874 4.31275 0.877092 4.22012C0.780309 4.12749 0.651512 4.07579 0.517547 4.07579C0.383581 4.07579 0.254784 4.12749 0.158002 4.22012C0.0612198 4.31275 0.00392024 4.43916 -0.00195312 4.57299V5.72799Z" fill="#333333"/>
</svg>
