<svg width="36" height="24" viewBox="0 0 36 24" fill="none" xmlns="http://www.w3.org/2000/svg">
<g clip-path="url(#clip0_286_6)">
<path d="M10.4745 15.8371L11.5446 19.3089C11.785 20.0972 11.8852 20.6475 11.8451 20.9612C12.4303 19.3938 12.8392 17.6858 13.0718 15.8371H14.3585C13.8052 18.8468 13.0756 21.0339 12.1698 22.3982C11.4641 23.4496 10.691 23.9753 9.84915 23.9753C9.62469 23.9753 9.34797 23.9075 9.01961 23.7728V23.0473C9.18004 23.0708 9.36826 23.0834 9.58474 23.0834C9.9774 23.0833 10.2941 22.9746 10.5348 22.7573C10.8232 22.4926 10.9675 22.1951 10.9675 21.8654C10.9675 21.6402 10.855 21.1782 10.6308 20.4792L9.13995 15.8371H10.4745ZM2.28516 13.7031L4.24505 19.6829H4.25715L6.22907 13.7031H7.84017C8.19295 16.6687 8.40131 19.382 8.46527 21.8415H7.10696C7.0591 19.5425 6.92688 17.3804 6.71031 15.3553H6.69848L4.63008 21.8415H3.59567L1.53979 15.3553H1.52769C1.37525 17.3002 1.27907 19.4623 1.23914 21.8415H0.000488281C0.0805341 18.9478 0.280855 16.2352 0.601451 13.7031H2.28516Z" fill="#00758F"/>
<path d="M24.2411 13.5823C26.3493 13.5823 27.4034 14.9292 27.4034 17.6217C27.4034 19.0848 27.0864 20.19 26.453 20.9366C26.3388 21.073 26.2127 21.1909 26.0798 21.3001L27.5717 22.0378L27.5703 22.0377L27.0406 22.9525L25.0977 21.8188C24.7755 21.9142 24.4214 21.9619 24.0351 21.9619C23 21.9619 22.2267 21.6602 21.7155 21.0576C21.1544 20.3909 20.8739 19.3414 20.8739 17.9109C20.8739 16.4561 21.1904 15.3551 21.824 14.6075C22.4011 13.9237 23.2069 13.5823 24.2411 13.5823ZM17.7851 13.5941C18.5386 13.5941 19.2238 13.7957 19.8409 14.1975L19.5275 14.896C18.9994 14.6716 18.4787 14.5588 17.9653 14.5588C17.5487 14.5588 17.2277 14.6591 17.0039 14.8609C16.7789 15.0609 16.6397 15.3182 16.6397 15.6319C16.6397 16.114 16.9832 16.532 17.6173 16.8852C17.825 16.9988 18.032 17.1136 18.2383 17.2298L18.2856 17.2564L18.3094 17.2697L18.3567 17.2964L18.3804 17.3097L18.4277 17.3364C18.9077 17.607 19.3594 17.8653 19.3594 17.8653C19.9934 18.3154 20.3095 18.7952 20.3095 19.5856C20.3095 20.2758 20.0566 20.8424 19.5523 21.2857C19.0478 21.7271 18.3699 21.9484 17.5211 21.9484C16.7272 21.9484 15.9577 21.6937 15.2124 21.1885L15.5611 20.4894C16.2025 20.8109 16.7829 20.9715 17.304 20.9715C17.7928 20.9715 18.1755 20.8623 18.4523 20.6468C18.7285 20.4297 18.894 20.1269 18.894 19.743C18.894 19.2598 18.5579 18.8467 17.9413 18.5001C17.7482 18.3935 17.5558 18.2858 17.3639 18.1771L17.3167 18.1504C17.2299 18.1014 17.1425 18.0517 17.0569 18.0031L17.0105 17.9767C16.5941 17.7398 16.2341 17.5329 16.2341 17.5329C15.6177 17.082 15.3085 16.5982 15.3085 15.8011C15.3085 15.1418 15.539 14.6089 15.9994 14.2035C16.4609 13.7972 17.0561 13.5941 17.7851 13.5941ZM29.8811 13.703V20.8403H32.4419V21.8414H28.5823V13.7031L29.8811 13.703ZM33.8648 20.8434V21.0126H33.5833V21.8405H33.368V21.0126H33.0756V20.8434H33.8648ZM34.3847 20.8434L34.655 21.5231L34.9033 20.8434H35.2085V21.8405H35.0056V21.0817L34.723 21.8405H34.5767L34.2936 21.0817H34.2827V21.8405H34.0908V20.8434H34.3847ZM24.1085 14.5832C22.8661 14.5832 22.2446 15.6085 22.2446 17.6578C22.2446 18.8317 22.4093 19.6829 22.7381 20.2134C23.0426 20.7044 23.5195 20.9495 24.1689 20.9495C25.4112 20.9495 26.0327 19.9161 26.0327 17.8505C26.0327 16.6931 25.868 15.8491 25.5396 15.3183C25.2348 14.8284 24.7581 14.5832 24.1086 14.5832" fill="#F29111"/>
<path d="M20.8519 0.50428C21.2641 -0.508396 22.7051 0.258503 23.2643 0.612245C23.4014 0.70075 23.5586 0.88773 23.7157 0.956841C23.9609 0.966469 24.2058 0.985655 24.4514 0.995902C24.912 1.10414 25.3434 1.19258 25.7064 1.39929C27.3931 2.39265 28.4912 3.40491 29.5017 5.07693C29.7176 5.43109 29.8255 5.81433 30.0019 6.19757C30.2467 6.76883 30.5218 7.36849 30.806 7.90866C30.9332 8.16475 31.0316 8.44952 31.2083 8.66579C31.2772 8.76468 31.4731 8.79384 31.5903 8.85291C31.914 9.0205 32.3063 9.14772 32.6108 9.34439C33.1794 9.69896 33.7292 10.1215 34.229 10.554C34.4153 10.721 34.5423 10.9573 34.7197 11.1339V11.2231C34.5622 11.2714 34.4052 11.3209 34.2481 11.3606C33.9048 11.4488 33.6008 11.4288 33.2678 11.517C33.0621 11.5767 32.8066 11.6555 32.5908 11.6755L32.6108 11.6956C32.7377 12.0583 33.4246 12.3533 33.7387 12.5703C34.1202 12.8456 34.4738 13.1796 34.7583 13.5631C34.8566 13.661 34.9549 13.75 35.0527 13.8476C35.121 13.9465 35.1403 14.0744 35.2094 14.1625V14.1924C35.1328 14.1654 35.0778 14.1138 35.0256 14.0599L34.9944 14.0274C34.9633 13.995 34.9318 13.9633 34.896 13.9371C34.6795 13.7892 34.4645 13.6123 34.2481 13.4749C33.8759 13.2387 33.4442 13.1017 33.0621 12.8646C32.846 12.727 32.6401 12.5703 32.4341 12.4128C32.2474 12.2748 32.0418 12.0098 31.9245 11.8131C31.8554 11.7044 31.8459 11.5767 31.7669 11.4981C31.781 11.3669 31.9013 11.3279 32.0227 11.2958L32.0506 11.2885C32.0925 11.2776 32.1335 11.2667 32.1692 11.2524C32.6791 11.0359 33.2869 10.9573 34.0718 10.977C34.0422 10.7799 33.5518 10.5344 33.3952 10.4163C33.0809 10.1898 32.7482 9.95347 32.4148 9.74731C32.2381 9.63934 31.9337 9.56053 31.738 9.4723C31.4731 9.36406 30.8846 9.25589 30.7378 9.04972C30.4885 8.72473 30.3095 8.33708 30.1356 7.94552L30.0883 7.83865L30.0408 7.73186C29.8354 7.26031 29.5801 6.76869 29.3741 6.28587C29.2665 6.05034 29.217 5.84363 29.0991 5.61772C28.3834 4.2315 27.3242 3.0709 26.0399 2.2547C25.6179 1.98912 25.1473 1.74334 24.6279 1.5763C24.3335 1.48739 23.9801 1.53655 23.6665 1.46834H23.46C23.2839 1.41869 23.1368 1.23191 22.9993 1.13344C22.6957 0.927271 22.3916 0.788841 22.0285 0.641747C21.9013 0.582744 21.538 0.445346 21.4112 0.553518C21.3326 0.573254 21.2928 0.602893 21.2735 0.681701C21.1954 0.799294 21.2641 0.97644 21.3127 1.08489C21.46 1.39916 21.6657 1.58593 21.8525 1.85151C22.0187 2.08704 22.225 2.35262 22.3428 2.60872C22.597 3.1592 22.7153 3.7691 22.9509 4.31952C23.0382 4.52651 23.1764 4.76204 23.3035 4.94875C23.4113 5.09694 23.6072 5.20408 23.6665 5.39168C23.7846 5.58836 23.4896 6.23732 23.4213 6.44342C23.1658 7.24986 23.2154 8.37085 23.5095 9.06987L23.5252 9.10673L23.5409 9.14407C23.6483 9.4001 23.7633 9.67579 24.0489 9.74737C24.0686 9.72784 24.0489 9.73809 24.0879 9.72784C24.157 9.18678 24.1765 8.66572 24.363 8.24239C24.4707 7.9777 24.6859 7.79058 24.8334 7.57451C24.9317 7.63338 24.9317 7.81087 24.9903 7.92833C25.118 8.23297 25.255 8.56697 25.4124 8.87251C25.7353 9.50174 26.0987 10.1118 26.5104 10.6622C26.6483 10.8588 26.8439 11.0752 27.0204 11.2523C27.099 11.3209 27.187 11.3605 27.2461 11.4487H27.2653V11.4784C26.9711 11.37 26.7846 11.0656 26.55 10.8879C26.1082 10.5539 25.5792 10.0523 25.2747 9.57098C25.1473 9.29467 25.0096 9.02985 24.8724 8.75492V8.73504C24.8137 8.81357 24.8334 8.89156 24.804 9.01039C24.6767 9.50174 24.7747 10.0623 24.3335 10.239C23.8332 10.446 23.4601 9.90499 23.3035 9.65915C22.8032 8.84315 22.6661 7.46655 23.019 6.35533C23.0974 6.10935 23.108 5.81433 23.2449 5.61793C23.2153 5.44037 23.0784 5.39182 22.9993 5.28303C22.862 5.09708 22.7445 4.88046 22.637 4.67395C22.4306 4.27056 22.2837 3.78857 22.127 3.35595C22.0581 3.17928 22.0383 3.00193 21.9696 2.83469C21.8524 2.57942 21.6364 2.32333 21.4698 2.09749C21.2442 1.77291 20.587 1.14382 20.8519 0.50428ZM24.0684 2.43081C24.0946 2.45708 24.1262 2.48005 24.1589 2.50268L24.1984 2.52977C24.251 2.56622 24.302 2.60459 24.3332 2.65685C24.3827 2.72603 24.3919 2.79432 24.4512 2.86364C24.4512 3.09999 24.3827 3.25713 24.2444 3.35505C24.2444 3.35505 24.235 3.36537 24.2253 3.375C24.1469 3.21745 24.0782 3.06073 23.9992 2.90332C23.902 2.76592 23.7645 2.65692 23.6853 2.49992H23.6663V2.48019C23.7846 2.45096 23.902 2.43081 24.0684 2.43081Z" fill="#00758F"/>
</g>
<defs>
<clipPath id="clip0_286_6">
<rect width="35.21" height="24" fill="white"/>
</clipPath>
</defs>
</svg>
