<svg width="25" height="24" viewBox="0 0 25 24" fill="none" xmlns="http://www.w3.org/2000/svg">
<g clip-path="url(#clip0_286_10)">
<path d="M16.615 5.50101C16.5 5.50101 16.422 5.51501 16.341 5.53401V5.54701H16.355C16.409 5.65101 16.501 5.72701 16.569 5.82001C16.623 5.92701 16.669 6.03401 16.723 6.14001L16.737 6.12501C16.831 6.05901 16.877 5.95301 16.877 5.79201C16.837 5.74501 16.831 5.69801 16.797 5.65201C16.757 5.58501 16.671 5.55201 16.617 5.49901L16.615 5.50101ZM5.97996 18.695H5.05296C5.02671 17.2218 4.93662 15.7504 4.78296 14.285H4.77496L3.36496 18.695H2.65996L1.25996 14.285H1.24996C1.14052 15.7527 1.07549 17.2234 1.05496 18.695H0.209961C0.265294 16.7283 0.401961 14.885 0.619961 13.165H1.76996L3.10496 17.229H3.11296L4.45996 13.165H5.55496C5.79696 15.181 5.93963 17.0243 5.98296 18.695H5.97996ZM9.99696 14.615C9.61896 16.661 9.12163 18.1477 8.50496 19.075C8.02296 19.791 7.49529 20.1487 6.92196 20.148C6.76996 20.148 6.58129 20.102 6.35596 20.01V19.516C6.46663 19.5333 6.59529 19.542 6.74196 19.542C7.00996 19.542 7.22563 19.468 7.38896 19.32C7.58563 19.14 7.68396 18.9383 7.68396 18.715C7.68396 18.5597 7.60729 18.245 7.45396 17.771L6.43996 14.615H7.34996L8.07696 16.975C8.24163 17.511 8.30996 17.8853 8.28196 18.098C8.68196 17.0327 8.96029 15.8717 9.11696 14.615H9.99696ZM22.322 18.695H19.692V13.165H20.577V18.015H22.322V18.695ZM19.002 18.83L17.986 18.33C18.0766 18.2547 18.1616 18.1713 18.241 18.08C18.6736 17.5733 18.8896 16.8223 18.889 15.827C18.889 13.997 18.1706 13.0817 16.734 13.081C16.03 13.081 15.48 13.3133 15.084 13.778C14.6533 14.286 14.438 15.0343 14.438 16.023C14.4373 16.9957 14.6286 17.709 15.012 18.163C15.3613 18.573 15.889 18.778 16.595 18.778C16.859 18.778 17.1006 18.7453 17.32 18.68L18.645 19.452L19.005 18.83H19.002ZM15.71 17.588C15.4853 17.2273 15.373 16.6487 15.373 15.852C15.373 14.4587 15.7963 13.762 16.643 13.762C17.087 13.762 17.4126 13.9287 17.62 14.262C17.844 14.624 17.956 15.1983 17.956 15.985C17.956 17.3897 17.5326 18.0923 16.686 18.093C16.2413 18.093 15.9153 17.9263 15.708 17.593L15.71 17.588ZM14.052 17.163C14.052 17.6337 13.88 18.019 13.536 18.319C13.1933 18.619 12.732 18.769 12.152 18.769C11.609 18.769 11.088 18.597 10.579 18.254L10.816 17.778C11.2533 17.9973 11.65 18.1067 12.006 18.106C12.338 18.106 12.599 18.0327 12.789 17.886C12.8842 17.8146 12.961 17.7216 13.0132 17.6147C13.0653 17.5078 13.0913 17.39 13.089 17.271C13.089 16.941 12.859 16.661 12.441 16.426C12.053 16.213 11.278 15.769 11.278 15.769C10.856 15.462 10.646 15.133 10.646 14.592C10.646 14.1427 10.8026 13.781 11.116 13.507C11.43 13.2297 11.8366 13.0913 12.336 13.092C12.8486 13.092 13.3153 13.2287 13.736 13.502L13.523 13.978C13.1876 13.8299 12.8256 13.7516 12.459 13.748C12.1756 13.748 11.9576 13.8167 11.805 13.954C11.7281 14.0181 11.6661 14.0982 11.6233 14.1887C11.5804 14.2792 11.5578 14.3779 11.557 14.478C11.557 14.806 11.791 15.088 12.223 15.328C12.616 15.543 13.41 15.998 13.41 15.998C13.843 16.303 14.058 16.628 14.058 17.166L14.052 17.163ZM23.434 11.311C22.899 11.297 22.484 11.351 22.137 11.499C22.037 11.539 21.877 11.539 21.863 11.666C21.918 11.719 21.926 11.806 21.973 11.88C22.053 12.014 22.191 12.193 22.319 12.287C22.4576 12.3983 22.6 12.5017 22.746 12.597C23.006 12.757 23.301 12.852 23.556 13.013C23.701 13.107 23.849 13.226 23.996 13.326C24.069 13.376 24.116 13.466 24.21 13.498V13.478C24.164 13.418 24.15 13.331 24.105 13.264C24.038 13.197 23.971 13.137 23.905 13.071C23.7089 12.812 23.4745 12.5844 23.21 12.396C22.996 12.25 22.528 12.046 22.44 11.801L22.427 11.787C22.573 11.774 22.747 11.721 22.887 11.681C23.114 11.621 23.322 11.634 23.557 11.575C23.6636 11.547 23.7703 11.5157 23.877 11.481V11.421C23.757 11.301 23.667 11.138 23.543 11.026C23.1965 10.7239 22.8274 10.4487 22.439 10.203C22.229 10.069 21.963 9.98301 21.742 9.86901C21.662 9.82901 21.528 9.80901 21.482 9.74201C21.362 9.59601 21.292 9.40201 21.207 9.22801C21.0108 8.84697 20.8284 8.45906 20.66 8.06501C20.54 7.80301 20.467 7.54201 20.32 7.30201C19.63 6.16501 18.883 5.47601 17.734 4.80201C17.487 4.66201 17.191 4.60201 16.878 4.52801C16.711 4.52001 16.544 4.50801 16.378 4.50101C16.268 4.45401 16.162 4.32701 16.068 4.26601C15.688 4.02601 14.704 3.50601 14.424 4.19401C14.244 4.62801 14.691 5.05601 14.846 5.27601C14.961 5.42901 15.106 5.60401 15.186 5.77601C15.233 5.89201 15.246 6.01101 15.293 6.13201C15.399 6.42601 15.5 6.75401 15.64 7.02901C15.713 7.16901 15.793 7.31601 15.887 7.44201C15.941 7.51501 16.033 7.54901 16.054 7.66901C15.96 7.80501 15.954 8.00301 15.9 8.16901C15.66 8.92601 15.754 9.86201 16.094 10.419C16.201 10.585 16.456 10.953 16.797 10.812C17.097 10.692 17.031 10.312 17.117 9.97701C17.137 9.89701 17.124 9.84401 17.165 9.79001V9.80501C17.259 9.99301 17.353 10.172 17.439 10.36C17.645 10.688 18.005 11.028 18.306 11.255C18.466 11.375 18.593 11.583 18.793 11.657V11.637H18.778C18.735 11.579 18.678 11.551 18.624 11.504C18.4973 11.3797 18.3803 11.246 18.274 11.104C17.9931 10.7184 17.7433 10.3112 17.527 9.88601C17.417 9.67601 17.325 9.45001 17.237 9.24301C17.197 9.16301 17.197 9.04301 17.13 9.00301C17.03 9.14901 16.883 9.27601 16.81 9.45601C16.683 9.74401 16.67 10.098 16.622 10.466C16.595 10.473 16.608 10.466 16.595 10.48C16.381 10.428 16.308 10.206 16.228 10.02C16.028 9.54501 15.995 8.78201 16.168 8.23501C16.215 8.09501 16.415 7.65301 16.335 7.51901C16.293 7.39201 16.161 7.31901 16.088 7.21601C15.9942 7.08187 15.9138 6.93885 15.848 6.78901C15.688 6.41501 15.608 6.00101 15.434 5.62701C15.354 5.45401 15.214 5.27301 15.1 5.11401C14.973 4.93401 14.833 4.80701 14.732 4.59401C14.699 4.52101 14.652 4.40001 14.705 4.32001C14.719 4.26601 14.747 4.24501 14.799 4.23001C14.887 4.15801 15.134 4.25201 15.221 4.29201C15.468 4.39201 15.676 4.48601 15.883 4.62601C15.977 4.69201 16.078 4.81901 16.198 4.85201H16.338C16.552 4.89901 16.793 4.86601 16.993 4.92501C17.348 5.03901 17.668 5.20501 17.955 5.38501C18.8394 5.94981 19.5587 6.73848 20.04 7.67101C20.12 7.82501 20.155 7.96601 20.228 8.12601C20.368 8.45601 20.541 8.78901 20.683 9.10801C20.823 9.42301 20.958 9.74401 21.159 10.005C21.259 10.145 21.661 10.218 21.841 10.291C21.974 10.351 22.181 10.406 22.301 10.479C22.531 10.619 22.755 10.779 22.971 10.933C23.081 11.009 23.414 11.176 23.434 11.311Z" fill="#333333"/>
</g>
<defs>
<clipPath id="clip0_286_10">
<rect width="24" height="24" fill="white" transform="translate(0.209961)"/>
</clipPath>
</defs>
</svg>
