<svg width="22" height="24" viewBox="0 0 22 24" fill="none" xmlns="http://www.w3.org/2000/svg">
<path d="M11.0001 0C10.9349 0.00325663 10.8711 0.0192231 10.8121 0.047L1.17008 4.274C0.905078 4.443 0.792078 4.637 0.798078 4.966L1.63008 15.244C1.63908 15.351 1.67708 15.409 1.75808 15.494L5.32208 18.207C5.32208 18.207 5.33708 20.222 5.77708 21.013C6.10908 21.61 7.65208 24.033 11.0001 24C14.3481 23.967 15.9881 21.97 16.4841 20.972C16.9541 20.026 16.9441 18.06 16.9441 18.06L20.1991 15.512C20.2419 15.4839 20.2771 15.4456 20.3015 15.4006C20.326 15.3556 20.3389 15.3052 20.3391 15.254L21.1991 4.944C21.2251 4.632 21.0961 4.374 20.8311 4.259L11.1811 0.047C11.1253 0.0172522 11.0633 0.00114538 11.0001 0ZM10.9491 1.078C11.0031 1.08 11.0571 1.098 11.1371 1.134L18.5541 4.563L11.1321 8.9C11.0171 8.958 10.9661 8.949 10.8681 8.9L3.51808 4.636C3.40508 4.562 3.39808 4.511 3.51808 4.439L10.7521 1.125C10.8139 1.09606 10.8809 1.08006 10.9491 1.078ZM10.9591 1.766L4.90508 4.591L10.9471 8.081L17.0141 4.601L10.9591 1.766ZM10.9591 2.141L16.1911 4.601L12.9291 6.421L11.8891 5.864L13.6531 3.656L11.5151 4.494L12.6391 3.1L9.38708 4.446L10.4871 3.296L9.50908 2.846L10.9591 2.141ZM9.12208 2.99L9.90608 3.378L7.79108 5.476L11.4061 3.984L10.1601 5.486L12.3971 4.554L11.2611 5.973L12.4931 6.639L10.9331 7.524L5.78508 4.578L9.12208 2.99ZM2.19208 6.892C2.22008 6.89333 2.26508 6.91133 2.32708 6.946L9.60708 11.523L9.62408 19.341L2.77108 14.284C2.69408 14.211 2.66708 14.186 2.66808 14.091L2.14808 6.954C2.14808 6.912 2.16274 6.89133 2.19208 6.892ZM19.7841 6.978C19.8127 6.978 19.8271 6.99867 19.8271 7.04L19.3321 14.067C19.3321 14.163 19.3061 14.187 19.2291 14.26L12.3861 19.341L12.4291 11.536L19.6481 7.032C19.6897 7.00579 19.7358 6.98748 19.7841 6.978ZM18.9791 10.184L18.8021 10.31L18.6691 10.752L18.6201 10.437L18.3941 10.587L18.5391 11.185L18.3151 12.1L18.5481 11.905L18.6331 11.378L18.6971 11.791L18.9751 11.607L18.7801 10.925L18.9791 10.184ZM3.26908 10.433C3.14908 10.422 3.07908 10.56 3.10008 10.803C3.12808 11.13 3.31008 11.523 3.50808 11.68L3.92708 12.01C4.12708 12.168 4.26508 12.028 4.23408 11.697C4.20408 11.367 4.01808 10.973 3.82008 10.818L3.40308 10.495C3.36504 10.4623 3.31864 10.4408 3.26908 10.433ZM3.34408 10.668C3.37598 10.6744 3.40584 10.6885 3.43108 10.709L3.82808 11.019C3.95708 11.12 4.07808 11.377 4.09808 11.589C4.11808 11.804 4.02808 11.893 3.89908 11.791L3.49908 11.476C3.37108 11.375 3.25308 11.122 3.23508 10.91C3.22108 10.752 3.26508 10.661 3.34408 10.668ZM18.1671 10.771C18.1671 10.736 18.0931 10.781 18.0521 10.811C17.8921 10.934 17.6941 11.37 17.6801 11.879C17.6651 12.435 17.7901 12.498 17.9431 12.393C18.1051 12.283 18.3251 11.901 18.3331 11.367C18.3401 10.958 18.1671 10.876 18.1671 10.771ZM17.4541 10.838C17.4541 10.838 17.0151 11.028 17.0141 11.133C17.0041 11.783 16.9441 13.101 16.9441 13.101L17.2761 12.85C17.2761 12.85 17.6051 12.632 17.6101 12.03C17.6131 11.644 17.4841 11.72 17.4841 11.72C17.4841 11.72 17.5881 11.502 17.5901 11.206C17.5951 10.761 17.4541 10.838 17.4541 10.838ZM18.0561 11.052C18.1711 11.052 18.1501 11.32 18.1481 11.498C18.1461 11.673 18.0601 12.074 17.9681 12.141C17.8751 12.209 17.8681 11.898 17.8701 11.718C17.8731 11.545 17.9441 11.052 18.0561 11.052ZM17.3361 11.127C17.3361 11.127 17.4161 11.077 17.4091 11.341C17.4036 11.4554 17.3735 11.5672 17.3211 11.669L17.1871 11.759L17.1931 11.221L17.3361 11.127ZM16.8241 11.148L16.5951 11.288L16.5351 13.131C16.5351 13.131 16.5211 13.315 16.5711 13.353C16.6431 13.409 16.8381 13.18 16.8381 13.18L16.8341 12.97C16.8341 12.97 16.7591 12.988 16.7621 12.912L16.8241 11.148ZM4.25008 11.16L4.36208 12.356L4.50208 12.467L4.41108 11.479L4.87208 11.842C4.94971 11.9188 4.99815 12.0203 5.00908 12.129C5.01908 12.237 4.97608 12.283 4.91108 12.232L4.51508 11.919L4.99208 12.855L5.19708 13.018L4.87708 12.401L4.94008 12.451C5.07708 12.558 5.17008 12.464 5.14808 12.238C5.12608 12.013 4.99808 11.742 4.86108 11.636L4.25008 11.16ZM17.2991 11.94C17.2991 11.94 17.3991 11.916 17.3891 12.219C17.3811 12.476 17.2991 12.557 17.2991 12.557L17.1471 12.667L17.1601 12.047L17.2991 11.94ZM16.3491 12.114C16.3071 12.102 16.2471 12.12 16.1601 12.191C16.0531 12.261 15.8551 12.571 15.8551 12.571L15.8631 12.761C15.8631 12.761 15.9771 12.62 16.0341 12.574C16.2551 12.354 16.1991 12.664 16.1991 12.664L16.1941 12.763L16.0381 12.909C16.0381 12.909 15.8071 13.136 15.7951 13.567C15.7891 13.773 15.8631 13.917 15.9751 13.832C16.0851 13.75 16.2221 13.502 16.2221 13.502L16.2261 13.646L16.4161 13.476L16.4291 12.456C16.4291 12.456 16.4721 12.149 16.3491 12.114ZM5.64508 12.24C5.61008 12.212 5.57908 12.213 5.56508 12.244L5.23108 13.044L5.39808 13.177L5.67108 12.506L5.92508 13.196L5.54508 12.896L5.65008 13.176L6.03608 13.483L6.13908 13.763L6.30908 13.897L5.73708 12.379C5.71842 12.3258 5.6868 12.278 5.64508 12.24ZM15.6991 12.59L15.5191 12.722L15.5091 13.8C15.5091 13.8 15.4111 13.99 15.3691 14.017C15.2971 14.064 15.2991 13.91 15.2991 13.91L15.3141 12.89L15.1221 13.035L15.1071 14.055C15.1071 14.055 15.0961 14.512 15.2891 14.368C15.3887 14.2804 15.465 14.1694 15.5111 14.045L15.5281 14.173L15.6821 14.063L15.6991 12.59ZM14.8931 12.7L14.7291 12.808L14.6631 13.297L14.5861 13.346V13.369L14.4341 13.464C14.3741 13.557 14.3361 13.844 14.3361 13.844L14.3381 13.556L14.1631 13.68L14.1231 15.163L14.3211 15.02L14.3641 14.143C14.3641 14.143 14.3961 13.932 14.4621 13.822L14.5691 13.736L14.5861 13.427L14.5881 13.582L14.6541 13.526L14.6461 14.471C14.6461 14.471 14.6311 14.785 14.7961 14.675C14.8531 14.636 15.0091 14.445 15.0091 14.445L15.0001 14.252C15.0001 14.252 14.9241 14.323 14.9001 14.338C14.8631 14.361 14.8641 14.28 14.8641 14.28L14.8851 13.365L14.9951 13.288L14.9921 13.048L14.8961 13.108L14.8931 12.7ZM6.34208 12.84C6.21808 12.828 6.14508 12.97 6.17108 13.224C6.20608 13.563 6.40308 13.972 6.61108 14.137L7.06008 14.49L7.12208 14.34L6.59808 13.925C6.46408 13.818 6.33508 13.555 6.31208 13.335C6.28908 13.115 6.38208 13.025 6.51508 13.129L6.93808 13.462L7.00008 13.312L6.48308 12.904C6.44249 12.8707 6.39387 12.8486 6.34208 12.84ZM16.1921 13.012V13.369C16.1921 13.369 16.0851 13.495 16.0361 13.524C15.9881 13.553 15.9761 13.469 15.9761 13.395C15.9796 13.2865 16.0214 13.1827 16.0941 13.102L16.1921 13.012ZM13.9661 13.183C13.8991 13.231 13.8431 13.371 13.8421 13.496C13.8421 13.621 13.8951 13.683 13.9621 13.636C14.0301 13.588 14.0871 13.448 14.0881 13.322C14.0881 13.197 14.0341 13.134 13.9661 13.183ZM7.07908 13.372L7.19908 14.492C7.20708 14.5595 7.23776 14.6222 7.28608 14.67L7.95908 15.202L8.02108 15.05L7.33508 14.507L7.22508 13.485L7.07908 13.372ZM13.7631 13.481L13.5501 13.637C13.5501 13.637 13.5281 14.008 13.3681 15.327C13.2361 14.347 13.2361 13.877 13.2361 13.877L12.9901 14.04L13.1421 15.843L13.5071 15.635L13.7631 13.481ZM14.0221 13.779L13.8251 13.92L13.7631 15.425L13.9601 15.283L14.0221 13.779ZM8.11108 14.225C7.98408 14.212 7.91308 14.358 7.94208 14.617C7.98108 14.963 8.18608 15.382 8.39908 15.551L8.85908 15.915L8.92308 15.761L8.38208 15.335C8.26808 15.245 8.15708 15.045 8.10908 14.85L8.74508 15.35L8.80708 15.197L8.08308 14.627C8.09308 14.481 8.17708 14.431 8.29008 14.52L8.72608 14.863L8.78808 14.711L8.25408 14.293C8.21336 14.2579 8.16397 14.2345 8.11108 14.225ZM8.88008 14.812C8.86608 14.826 8.86108 14.853 8.86508 14.893C8.87485 14.973 8.91194 15.0472 8.97008 15.103C9.01808 15.141 9.05008 15.109 9.04008 15.03C9.02996 14.9495 8.99296 14.8748 8.93508 14.818C8.91108 14.8 8.89274 14.798 8.88008 14.812ZM8.89508 14.844C8.90575 14.8333 8.92074 14.8347 8.94008 14.848C8.97808 14.878 9.01408 14.952 9.02008 15.013C9.02808 15.076 9.00408 15.101 8.96508 15.071C8.95308 15.061 8.95008 15.036 8.94008 15.02L8.94608 15.024L8.94008 14.964L8.95508 14.974L8.98008 15.052L9.00208 15.069L8.97208 14.985H8.97608C8.98408 14.983 8.98508 14.972 8.98408 14.966V14.953C8.98223 14.9315 8.97346 14.9111 8.95908 14.895C8.952 14.8852 8.94319 14.8767 8.93308 14.87L8.91008 14.85L8.92508 14.987C8.91008 14.957 8.88808 14.937 8.88508 14.907C8.88108 14.875 8.88441 14.854 8.89508 14.844ZM8.93108 14.891L8.93708 14.895C8.94708 14.903 8.95008 14.906 8.95508 14.912L8.96508 14.938C8.96641 14.944 8.96641 14.9483 8.96508 14.951C8.96308 14.957 8.95608 14.953 8.95008 14.949L8.93708 14.939L8.93108 14.891Z" fill="#333333"/>
</svg>
